<?xml version="1.0" standalone="no"?>
<!DOCTYPE svg PUBLIC "-//W3C//DTD SVG 20010904//EN"
 "http://www.w3.org/TR/2001/REC-SVG-20010904/DTD/svg10.dtd">
<svg version="1.0" xmlns="http://www.w3.org/2000/svg"
 width="260.000000pt" height="260.000000pt" viewBox="0 0 260.000000 260.000000"
 preserveAspectRatio="xMidYMid meet">
<metadata>
Created by potrace 1.11, written by Peter Selinger 2001-2013
</metadata>
<g transform="translate(0.000000,260.000000) scale(0.100000,-0.100000)"
fill="#000000" stroke="none">
<path d="M309 1988 c-1 -30 -1 -1358 0 -1378 1 -14 32 -16 239 -16 130 0 239
4 242 7 3 4 5 122 5 262 -1 141 3 253 7 251 4 -3 8 0 8 5 0 6 -4 11 -8 11 -11
0 -9 40 2 59 6 10 5 12 -2 7 -7 -4 -12 -2 -12 3 0 6 8 11 18 12 14 0 14 2 2 7
-19 9 -24 32 -7 32 8 0 7 4 -3 10 -13 9 -13 10 0 11 8 0 23 2 33 4 12 2 17 -1
13 -10 -3 -10 0 -12 11 -8 13 5 14 3 3 -17 l-12 -23 -13 22 c-10 20 -13 21
-18 7 -4 -10 -3 -15 3 -11 6 3 11 1 11 -4 1 -6 2 -17 3 -23 1 -7 -5 -18 -14
-25 -8 -7 -10 -13 -4 -13 5 0 15 5 20 10 16 16 56 21 51 7 -2 -7 -9 -13 -15
-13 -7 -1 -17 -2 -23 -3 -5 0 -8 -5 -5 -10 3 -5 -1 -11 -8 -14 -8 -3 -17 -1
-20 6 -3 8 -5 8 -5 1 -1 -6 7 -18 16 -25 9 -8 14 -9 10 -3 -4 7 0 15 9 18 11
4 14 1 9 -13 -3 -11 3 -28 14 -42 12 -14 20 -18 21 -11 0 7 5 10 11 7 6 -4 8
-10 5 -13 -3 -3 0 -12 7 -20 10 -12 6 -12 -20 1 -18 10 -36 23 -40 31 -13 24
-37 23 -39 -1 -1 -18 2 -21 16 -13 13 7 22 5 31 -7 12 -14 11 -15 -11 -8 -23
7 -23 7 -7 -9 20 -20 23 -41 5 -30 -10 6 -10 5 -1 -8 7 -8 9 -19 5 -23 -4 -5
-1 -5 6 -1 6 4 12 2 12 -3 0 -21 2 -26 12 -39 6 -7 17 -11 24 -8 18 7 29 -13
15 -27 -9 -9 -11 -8 -8 3 2 8 2 12 0 7 -3 -4 -9 -5 -14 -2 -5 4 -6 -1 -3 -9 3
-9 10 -16 16 -16 5 0 7 -4 4 -9 -3 -5 6 -26 21 -47 14 -22 30 -52 36 -69 5
-16 15 -37 22 -45 7 -8 16 -25 20 -38 3 -13 11 -19 17 -16 8 5 9 1 5 -10 -5
-11 -3 -15 5 -10 7 5 9 2 6 -7 -3 -8 -1 -22 6 -30 9 -12 48 -14 241 -13 127 1
235 2 241 3 7 1 11 71 12 224 0 122 1 231 1 242 1 11 57 -84 124 -211 67 -128
128 -238 134 -246 9 -11 58 -13 250 -13 l238 0 3 708 2 707 -245 0 -245 0 0
-247 0 -248 -53 100 c-116 219 -170 322 -190 358 l-21 37 -243 0 -243 0 0
-252 0 -253 -32 62 c-18 34 -36 59 -42 56 -5 -4 -7 1 -3 10 4 11 -2 22 -16 32
-14 10 -17 15 -7 15 12 0 12 2 2 9 -7 4 -15 17 -16 27 -2 10 -8 19 -14 19 -6
0 -14 3 -18 8 -4 4 -2 7 5 7 8 0 4 11 -9 30 -12 17 -18 30 -14 30 4 0 -2 9
-15 21 -12 12 -20 27 -17 35 3 9 0 11 -12 7 -9 -3 -14 -3 -10 2 4 4 1 14 -7
21 -21 21 -28 17 -11 -7 15 -22 11 -53 -5 -43 -5 3 -6 -2 -2 -12 5 -14 8 -13
18 7 l13 22 12 -23 c11 -20 10 -22 -3 -17 -12 4 -14 2 -10 -10 4 -11 2 -14 -5
-9 -7 4 -12 3 -12 -3 0 -5 8 -10 18 -10 35 -1 52 -4 53 -10 9 -41 5 -48 -24
-47 -17 1 -32 6 -34 12 -2 7 7 10 22 9 14 -2 25 0 25 5 0 14 -32 21 -45 10 -9
-8 -14 -6 -18 5 -4 8 -12 12 -20 9 -10 -4 -13 11 -13 70 0 54 3 73 12 69 7 -2
15 0 18 5 3 5 -2 9 -11 8 -12 -1 -17 8 -19 29 -1 17 -2 33 -3 38 0 4 -109 7
-241 7 l-240 0 -1 -22z m578 -182 c0 -8 -6 -12 -14 -9 -7 3 -10 9 -7 14 8 14
21 11 21 -5z m6 -82 c25 2 44 -2 45 -8 3 -32 10 -47 28 -61 18 -14 18 -15 0
-8 -17 6 -18 5 -2 -18 8 -14 14 -35 11 -47 -3 -19 0 -22 22 -17 19 3 23 1 15
-7 -17 -17 15 -76 33 -60 5 4 5 1 1 -6 -10 -17 -34 2 -47 35 -5 13 -13 23 -18
23 -10 0 15 -56 29 -65 5 -3 7 -12 4 -19 -3 -8 5 -21 17 -30 13 -8 20 -18 17
-22 -4 -3 -20 9 -36 27 l-29 32 0 -31 c0 -27 3 -30 16 -19 12 9 13 9 7 0 -4
-7 -2 -13 3 -13 17 0 13 -15 -14 -46 -13 -15 -22 -31 -19 -34 3 -3 13 4 21 15
12 15 14 16 10 3 -9 -25 19 -44 41 -27 16 12 16 12 0 -6 -17 -18 -18 -18 -38
0 -11 10 -20 16 -20 12 0 -3 -3 -13 -7 -23 -4 -11 -3 -15 4 -11 19 12 45 -3
33 -18 -6 -7 -8 -20 -4 -29 3 -9 1 -16 -6 -16 -6 0 -9 4 -5 9 3 5 2 12 -3 14
-4 3 -13 -6 -19 -19 -11 -23 -10 -24 10 -19 17 5 19 4 7 -4 -12 -9 -12 -11 -1
-11 8 0 20 8 28 18 13 15 13 15 3 -6 -9 -18 -17 -22 -34 -18 -17 4 -22 1 -23
-16 -2 -16 1 -18 10 -9 6 6 15 11 20 11 5 0 -1 -9 -14 -21 -18 -16 -20 -19 -6
-15 10 3 16 2 13 -2 -3 -5 4 -15 14 -22 15 -11 17 -17 8 -28 -10 -11 -8 -13 8
-10 15 2 18 -2 17 -20 -2 -15 1 -21 9 -16 7 4 8 3 4 -5 -11 -17 -28 -2 -21 20
9 27 -24 13 -36 -15 -7 -17 -8 -14 -5 12 3 22 1 32 -7 29 -6 -2 -12 -18 -12
-35 -1 -32 21 -50 53 -44 6 2 12 -4 12 -13 0 -10 5 -13 12 -9 7 5 8 3 3 -6 -7
-11 -10 -10 -19 1 -6 8 -20 15 -31 17 -17 2 -15 -2 10 -24 19 -16 22 -22 9
-15 -16 8 -26 7 -40 -5 -18 -13 -17 -14 7 -8 15 3 30 1 33 -5 4 -5 12 -9 19
-7 7 1 9 1 4 -1 -4 -3 -4 -10 0 -16 3 -6 -4 -3 -18 6 -30 22 -36 21 -34 -3 1
-21 15 -41 15 -22 0 7 5 12 11 12 8 0 7 -6 -2 -17 -12 -14 -12 -16 2 -11 9 3
22 2 30 -3 11 -7 11 -9 1 -9 -7 0 -10 -5 -6 -11 3 -6 -4 -4 -17 5 -15 9 -29
12 -38 7 -8 -5 -21 -6 -30 -3 -14 5 -14 4 -2 -11 10 -12 17 -14 26 -7 14 11
45 3 45 -12 0 -5 -4 -6 -10 -3 -5 3 -10 1 -10 -4 0 -6 -5 -11 -11 -11 -8 0 -8
5 1 15 7 8 8 15 2 15 -5 0 -15 -6 -21 -14 -9 -11 -5 -16 21 -27 18 -8 36 -13
41 -11 4 1 7 -3 7 -8 0 -13 -6 -13 -40 5 -18 9 -30 11 -30 5 0 -6 11 -16 25
-22 14 -6 25 -15 25 -20 0 -5 -4 -7 -9 -4 -5 3 -12 -1 -15 -10 -4 -9 -9 -14
-13 -11 -3 4 0 14 8 24 12 15 12 16 -3 10 -10 -3 -17 -3 -16 1 2 12 -15 45
-34 64 -10 10 -16 23 -13 28 4 6 2 10 -4 10 -10 0 -10 18 2 37 12 19 -4 44
-27 41 -21 -3 -21 -1 -17 48 0 8 6 12 11 9 8 -5 7 -11 -1 -21 -6 -8 -9 -15 -5
-15 3 -1 9 -2 14 -3 4 -1 14 -5 22 -10 8 -5 12 -6 8 -1 -4 4 -2 15 5 23 7 10
8 13 1 9 -7 -4 -11 0 -10 11 0 10 -6 16 -16 16 -10 -1 -15 3 -12 10 3 6 -3 1
-14 -11 -20 -23 -40 -20 -21 4 9 10 8 13 0 13 -7 0 -9 5 -6 10 3 6 11 10 16
10 6 0 8 -4 5 -9 -3 -5 6 -9 19 -8 28 0 31 7 13 25 -7 7 -8 12 -4 12 5 0 3 6
-4 14 -6 8 -18 12 -26 9 -8 -3 -14 -1 -15 3 -1 5 -2 25 -4 44 l-3 34 15 -27
c7 -15 12 -31 9 -36 -3 -4 1 -8 8 -8 8 0 12 7 9 16 -4 12 -1 12 10 -2 9 -11
18 -14 21 -8 4 5 -2 15 -11 21 -16 11 -16 11 2 5 11 -3 16 -3 12 1 -4 4 1 13
11 21 11 10 12 12 2 8 -8 -4 -6 1 5 11 17 14 18 16 2 10 -10 -3 -16 -2 -13 2
2 4 -5 9 -17 9 -12 1 -17 -1 -12 -5 14 -10 18 -42 5 -42 -6 0 -9 4 -6 8 3 5
-1 18 -10 30 -10 15 -22 19 -40 16 l-26 -5 21 27 20 26 -21 29 c-23 31 -33 35
-43 19 -3 -6 1 -7 9 -4 9 3 16 2 16 -3 0 -5 -10 -10 -23 -11 -21 -1 -24 3 -24
33 0 19 4 32 9 29 4 -3 8 0 8 5 0 6 -4 11 -8 11 -4 0 -8 11 -8 24 0 14 4 22 8
20 4 -3 8 0 8 5 0 6 -4 11 -9 11 -4 0 -8 27 -7 59 1 33 4 57 9 54 4 -2 7 1 7
6 0 6 -4 11 -8 11 -4 0 -8 11 -8 24 0 14 4 22 8 20 4 -3 8 0 8 5 0 6 -3 11 -8
11 -4 0 -8 23 -8 50 0 29 4 50 10 50 6 0 4 5 -4 11 -12 9 -11 10 8 6 12 -3 20
-1 16 4 -3 5 -12 9 -20 9 -8 0 -13 6 -11 13 5 26 22 25 38 -3 15 -25 23 -28
62 -26z m111 -129 c3 -8 1 -15 -4 -15 -6 0 -10 7 -10 15 0 8 2 15 4 15 2 0 6
-7 10 -15z m34 -70 c-3 -3 -9 2 -12 12 -6 14 -5 15 5 6 7 -7 10 -15 7 -18z m6
-71 c3 -8 2 -12 -4 -9 -6 3 -10 10 -10 16 0 14 7 11 14 -7z m12 -76 c4 -6 3
-8 -4 -4 -6 3 -15 -2 -21 -11 -12 -20 -14 -13 -5 11 7 19 20 21 30 4z m-11
-37 c-3 -6 -11 -11 -16 -11 -5 0 -4 6 3 14 14 16 24 13 13 -3z m7 -68 c-6 -2
-10 -9 -6 -14 3 -5 0 -9 -5 -9 -12 0 -14 13 -4 23 3 4 11 7 17 6 6 0 5 -3 -2
-6z m-2 -92 c0 -5 -7 -12 -16 -15 -8 -3 -12 -10 -9 -16 3 -5 1 -10 -4 -10 -14
0 -14 6 1 30 13 21 28 27 28 11z m-145 -29 c-2 -9 -4 -19 -5 -22 0 -3 -5 3
-11 13 -5 9 -7 22 -4 27 9 15 24 2 20 -18z m147 -19 c-6 -2 -10 -9 -7 -14 4
-5 -1 -6 -10 -2 -13 5 -14 7 -3 14 7 5 18 8 23 8 6 0 4 -3 -3 -6z m-217 -43
c3 -5 1 -10 -4 -10 -6 0 -11 5 -11 10 0 6 2 10 4 10 3 0 8 -4 11 -10z m189
-55 c3 -8 1 -15 -4 -15 -6 0 -10 7 -10 15 0 8 2 15 4 15 2 0 6 -7 10 -15z
m-97 -43 c0 -10 -7 -19 -14 -19 -9 0 -10 4 -3 12 5 7 7 15 3 18 -3 4 -1 7 5 7
6 0 10 -8 9 -18z m127 -170 c2 -4 -5 -9 -17 -9 -17 -2 -19 0 -7 7 18 12 18 12
24 2z m-22 -89 c-15 -6 -6 -23 11 -19 7 1 9 1 4 -1 -4 -3 -4 -10 0 -16 4 -7
-2 -5 -13 3 -10 8 -21 15 -23 17 -7 4 11 23 22 22 9 0 8 -2 -1 -6z"/>
<path d="M824 1704 c-15 -12 -15 -15 -2 -10 9 2 19 -2 22 -10 3 -8 1 -14 -4
-14 -15 0 -33 -41 -22 -52 16 -16 40 18 35 49 -2 15 -5 34 -5 41 -2 15 0 15
-24 -4z m15 -70 c-15 -18 -22 -13 -13 10 3 9 10 13 16 10 5 -3 4 -12 -3 -20z"/>
<path d="M865 1710 c-4 -6 -3 -16 2 -23 10 -15 10 -38 -1 -55 -4 -7 -2 -19 4
-27 14 -17 0 -21 -16 -5 -7 7 -16 4 -29 -10 -15 -16 -16 -22 -5 -35 7 -9 20
-13 27 -10 9 3 13 0 10 -7 -2 -7 -13 -12 -23 -10 -16 2 -16 1 -4 -7 9 -7 18
-7 24 -1 16 16 30 11 16 -5 -10 -12 -9 -20 4 -40 19 -29 21 -41 4 -27 -17 13
-60 10 -66 -5 -2 -7 1 -13 8 -13 6 0 9 4 6 9 -3 5 6 9 21 9 l27 0 -22 -18
c-12 -10 -22 -23 -22 -29 0 -6 -4 -11 -10 -11 -5 0 -10 -5 -10 -11 0 -8 4 -9
13 0 8 6 17 8 20 4 11 -10 8 -33 -4 -33 -5 0 -7 5 -3 12 4 7 3 8 -5 4 -16 -10
-2 -29 16 -22 10 4 13 1 8 -13 -3 -12 3 -29 18 -47 21 -25 22 -31 11 -42 -8
-7 -14 -18 -14 -25 0 -7 4 -6 10 3 5 8 10 11 10 6 0 -5 7 -2 17 5 15 13 15 12
6 -6 -10 -18 -8 -20 24 -21 22 -1 30 2 22 7 -7 4 -17 5 -23 2 -5 -4 -6 -1 -1
7 5 9 4 11 -3 6 -8 -5 -10 -1 -5 10 5 14 3 16 -13 11 -19 -7 -19 -7 0 8 11 8
15 15 10 15 -6 0 -11 7 -11 16 0 15 2 15 13 0 8 -11 14 -13 19 -7 3 6 2 11 -2
11 -5 0 -9 10 -10 23 0 12 1 17 4 10 2 -7 12 -9 21 -6 15 4 15 3 2 -6 -13 -10
-13 -12 0 -21 13 -9 13 -10 0 -10 -13 0 -13 -1 0 -10 13 -9 13 -10 0 -10 -13
0 -13 -2 0 -11 12 -9 12 -10 -3 -5 -12 4 -17 2 -15 -6 7 -19 33 -15 32 4 -1
10 7 20 17 23 11 4 19 11 19 16 0 14 -20 11 -20 -3 0 -7 -5 -5 -11 5 -5 9 -7
22 -4 27 3 6 -5 14 -19 20 -30 11 -35 24 -7 15 14 -4 23 1 32 17 7 13 16 26
22 29 5 4 5 9 -2 13 -6 4 -11 1 -11 -6 0 -8 -5 -6 -11 5 -5 9 -15 17 -22 17
-8 0 -6 -4 3 -11 12 -9 12 -10 -3 -5 -12 4 -17 2 -15 -6 3 -7 10 -13 15 -13 6
0 15 -4 20 -8 4 -5 4 -8 -2 -7 -21 5 -29 -1 -15 -10 9 -6 10 -10 3 -10 -6 0
-15 5 -18 11 -5 6 -11 4 -19 -7 -11 -15 -13 -15 -13 0 0 9 5 16 11 16 5 0 1 7
-10 15 -17 14 -17 14 -1 9 14 -5 18 -2 15 12 -2 11 -10 25 -18 32 -13 11 -12
12 6 3 19 -9 20 -7 18 32 -2 60 -3 61 -17 48 -8 -6 -17 -8 -20 -4 -15 14 -6
20 28 18 19 0 34 -5 33 -11 -2 -5 -7 -8 -13 -6 -5 2 -4 -2 3 -9 18 -19 40 4
24 24 -7 8 -8 18 -4 22 4 5 1 5 -5 1 -7 -4 -13 -2 -13 3 0 6 5 11 12 11 6 0 3
6 -8 14 -15 12 -16 17 -7 27 9 9 10 16 2 26 -7 7 -8 13 -4 13 4 0 2 7 -5 15
-7 8 -9 15 -6 15 4 0 2 9 -4 21 -9 16 -14 18 -26 8 -10 -8 -14 -8 -14 0 0 14
-17 14 -25 1z m45 -7 c10 9 11 9 6 0 -4 -7 -2 -13 4 -13 6 0 9 -4 5 -9 -3 -5
-1 -12 5 -16 6 -4 8 -10 5 -15 -3 -5 -1 -12 5 -15 8 -5 7 -11 -1 -21 -9 -11
-9 -17 0 -28 8 -10 9 -16 1 -21 -6 -3 -8 -10 -6 -13 2 -4 -12 -7 -32 -7 -39 0
-51 15 -27 35 11 9 12 16 4 26 -6 7 -7 19 -3 26 12 19 14 58 3 58 -5 0 -9 5
-9 11 0 8 4 8 13 0 10 -8 17 -7 27 2z m-56 -136 c-7 -19 -20 -22 -29 -7 -9 15
16 43 27 32 5 -5 6 -16 2 -25z m65 -60 c9 4 5 -4 -9 -16 -14 -12 -19 -20 -12
-16 14 7 17 -1 3 -10 -6 -3 -15 4 -21 15 -13 24 -3 47 12 32 6 -6 18 -8 27 -5z
m8 -37 c-1 -11 -5 -20 -9 -20 -3 0 -6 9 -5 20 1 11 5 20 9 20 3 0 6 -9 5 -20z
m-15 -53 c5 -10 6 -17 1 -16 -18 3 -24 -2 -16 -13 13 -22 12 -36 -5 -43 -8 -3
-20 -1 -25 4 -14 14 2 33 22 27 14 -5 13 -4 -1 8 -19 14 -25 32 -8 21 6 -4 7
1 3 11 -5 15 -7 15 -15 0 -5 -9 -6 -21 -3 -26 3 -6 2 -10 -4 -10 -19 0 -23 21
-6 40 19 21 44 20 57 -3z m14 -97 c0 -9 -8 -16 -17 -16 -9 0 -16 5 -15 11 2 5
1 7 -1 2 -3 -4 -10 -5 -16 -1 -7 3 -3 -3 8 -13 11 -10 21 -25 23 -33 1 -8 -9
-2 -23 13 -30 33 -31 44 -7 49 34 7 48 3 48 -12z"/>
<path d="M896 1674 c-9 -23 -8 -27 8 -21 10 4 13 1 9 -9 -3 -7 1 -14 8 -14 16
0 3 -13 -17 -16 -11 -2 -14 3 -9 14 5 13 3 14 -6 5 -13 -13 -3 -37 12 -28 16
10 10 -5 -11 -27 -11 -12 -17 -24 -14 -27 3 -3 9 1 14 9 9 13 10 13 10 0 0
-12 2 -12 9 -2 4 8 11 13 15 13 16 -2 18 0 6 14 -10 12 -10 18 -1 29 8 10 9
16 1 21 -6 3 -8 9 -6 13 2 4 -2 15 -9 25 -11 16 -13 16 -19 1z m28 -92 c3 -5
-1 -9 -9 -9 -8 0 -12 4 -9 9 3 4 7 8 9 8 2 0 6 -4 9 -8z"/>
<path d="M950 1600 c0 -5 5 -10 10 -10 6 0 10 5 10 10 0 6 -4 10 -10 10 -5 0
-10 -4 -10 -10z"/>
<path d="M814 1499 c-3 -6 -2 -15 3 -20 5 -5 9 -1 10 11 2 22 -2 25 -13 9z"/>
<path d="M840 1485 c0 -8 4 -15 10 -15 5 0 7 7 4 15 -4 8 -8 15 -10 15 -2 0
-4 -7 -4 -15z"/>
<path d="M946 1465 c0 -16 -3 -35 -8 -42 -7 -9 -4 -9 16 0 27 13 37 33 11 23
-13 -5 -12 -1 2 18 10 13 20 20 21 15 2 -5 9 -9 15 -9 22 0 -14 25 -36 25 -19
1 -22 -4 -21 -30z"/>
<path d="M805 1320 c-3 -6 1 -7 9 -4 18 7 21 14 7 14 -6 0 -13 -4 -16 -10z"/>
<path d="M950 1140 c-6 -11 -8 -20 -4 -20 3 0 1 -7 -6 -15 -7 -8 -17 -12 -24
-8 -6 4 -5 -1 3 -10 7 -9 10 -17 6 -17 -4 0 -2 -7 5 -15 6 -8 9 -18 6 -23 -3
-5 6 -21 19 -35 21 -20 22 -25 8 -23 -13 1 -17 -7 -18 -29 0 -16 -3 -35 -7
-40 -4 -6 -3 -17 3 -25 7 -12 9 -12 9 -1 0 10 3 11 13 3 7 -6 18 -7 26 -3 9 6
10 11 2 15 -6 4 -15 5 -19 2 -4 -2 -9 5 -9 17 -2 17 0 18 7 7 5 -8 12 -11 16
-7 4 4 -1 13 -11 21 -17 12 -17 14 4 28 14 10 18 18 12 23 -6 3 -9 10 -6 15 3
4 -1 10 -8 13 -14 5 -16 54 -3 76 6 9 3 18 -9 28 -11 7 -15 13 -10 13 5 0 19
-10 32 -22 13 -12 23 -16 23 -10 0 6 -11 19 -25 28 -14 9 -22 20 -19 25 3 5 3
9 0 9 -3 0 -10 -9 -16 -20z m13 -53 c-4 -7 -8 -15 -8 -19 0 -5 -4 -8 -10 -8
-13 0 -14 21 -2 37 12 16 30 6 20 -10z m-6 -54 c-4 -3 -1 -13 6 -22 11 -14 10
-14 -5 -2 -16 12 -16 31 -1 31 4 0 3 -3 0 -7z"/>
<path d="M946 845 c4 -8 11 -15 16 -15 6 0 5 6 -2 15 -7 8 -14 15 -16 15 -2 0
-1 -7 2 -15z"/>
</g>
</svg>
